<!DOCTYPE svg PUBLIC "-//W3C//DTD SVG 1.1//EN" "http://www.w3.org/Graphics/SVG/1.1/DTD/svg11.dtd">
<!-- Uploaded to: SVG Repo, www.svgrepo.com, Transformed by: SVG Repo Mixer Tools -->
<svg version="1.1" id="Uploaded to svgrepo.com" xmlns="http://www.w3.org/2000/svg" xmlns:xlink="http://www.w3.org/1999/xlink" width="800px" height="800px" viewBox="-3.2 -3.2 38.40 38.40" xml:space="preserve" fill="#000000" transform="matrix(1, 0, 0, 1, 0, 0)rotate(0)">
<g id="SVGRepo_bgCarrier" stroke-width="0" transform="translate(0,0), scale(1)">
<path transform="translate(-3.2, -3.2), scale(1.2)" d="M16,26.516975574195385C18.148699402848614,26.164016705137676,20.428233542209863,26.89657752257846,22.371779774138524,25.914682858470144C24.409570379716378,24.885175204205918,25.791333506712068,22.96999557371886,26.933629162524515,20.99322113107701C28.16828620440562,18.85661273779508,29.922572395814466,16.461254946365198,29.19756173771715,14.102477088457695C28.463626093362045,11.714662333324076,25.477651751578616,10.988235876281841,23.422109244731324,9.568705729566842C21.893100882365832,8.51279301663242,20.374330900557286,7.625722575873061,18.68819488544673,6.844848982986717C16.695973527135184,5.922222910150209,14.840558837009418,4.651106866510455,12.646275651940652,4.5782637850620915C9.943497289240703,4.488540313747763,6.24335812948443,4.03667952945993,4.9063966799953125,6.387338003539835C3.470238949871354,8.912404331907982,6.372130150213841,11.83331395161385,6.894638954627812,14.690846722688098C7.216952303808433,16.453536556922195,7.221863187301492,18.150368064532874,7.383623101514841,19.93496748090786C7.6401668923534665,22.765260150335195,5.865765758275456,26.52993693314379,8.124131130203924,28.25509117497446C10.304730777884313,29.92084056109702,13.292252548735455,26.961767189451194,16,26.516975574195385" fill="#3abff8" strokewidth="0"/>
</g>
<g id="SVGRepo_tracerCarrier" stroke-linecap="round" stroke-linejoin="round" stroke="#CCCCCC" stroke-width="0.384"/>
<g id="SVGRepo_iconCarrier"> <style type="text/css"> .avocado_een{fill:#231F20;} .avocado_zeventien{fill:#3abff8;} .avocado_zes{fill:#FFFAEE;} .avocado_acht{fill:#A3AEB5;} .st0{fill:#000000;} .st1{fill:#E0A838;} .st2{fill:#D1712A;} .st3{fill:#788287;} .st4{fill:#C3CC6A;} .st5{fill:#6F9B45;} .st6{fill:#248EBC;} .st7{fill:#8D3E93;} .st8{fill:#3D3935;} .st9{fill:#D36781;} .st10{fill:#E598A3;} .st11{fill:#716558;} .st12{fill:#AF9480;} .st13{fill:#DBD2C1;} .st14{fill:#231F20;} </style> <g> <polygon class="avocado_zes" points="2.5,29.5 2.5,8.5 4.5,8.5 4.5,6.5 29.5,6.5 29.5,27.5 27.5,27.5 27.5,29.5 "/> <polygon class="avocado_zeventien" points="2.5,15.5 2.5,8.5 4.5,8.5 4.5,6.5 29.5,6.5 29.5,13.5 4.5,13.5 4.5,15.5 "/> <g> <path class="avocado_acht" d="M24,9.5c-0.827,0-1.5-0.673-1.5-1.5V4c0-0.827,0.673-1.5,1.5-1.5s1.5,0.673,1.5,1.5v4 C25.5,8.827,24.827,9.5,24,9.5z M10,9.5C9.173,9.5,8.5,8.827,8.5,8V4c0-0.827,0.673-1.5,1.5-1.5s1.5,0.673,1.5,1.5v4 C11.5,8.827,10.827,9.5,10,9.5z"/> </g> <path class="avocado_een" d="M13,19v-2h3v7h-2v-5L13,19z M19,24h2v-7h-3v2l1,0V24z M30,6v22h-2v2H2V8h2V6h4V4 c0-1.105,0.895-2,2-2c1.105,0,2,0.895,2,2v2h10V4c0-1.105,0.895-2,2-2c1.105,0,2,0.895,2,2v2H30z M23,8c0,0.551,0.449,1,1,1 s1-0.449,1-1V4c0-0.551-0.449-1-1-1s-1,0.449-1,1V8z M9,8c0,0.551,0.449,1,1,1s1-0.449,1-1V4c0-0.551-0.449-1-1-1S9,3.449,9,4V8z M3,15h1V9H3V15z M27,28H4V16H3v13h24V28z M29,14H5v13h24V14z M29,13V7h-3v1c0,1.105-0.895,2-2,2c-1.105,0-2-0.895-2-2V7H12v1 c0,1.105-0.895,2-2,2c-1.105,0-2-0.895-2-2V7H5v6H29z"/> </g> </g>
</svg>